<svg width="1080" height="49" viewBox="0 0 1080 49" fill="none" xmlns="http://www.w3.org/2000/svg">
<path d="M31.8196 48.2751V45.4497H26.134V5.68555H40.3306V14.1965H43.1733V8.52832H46.0161V0H43.1733V2.84277H6.25195V0H3.42651V8.52832H0.601074V14.1965H3.42651V11.3711H6.25195V8.52832H9.09473V5.68555H20.4658V45.4497H14.7803V48.2751H31.8196Z" fill="black"/>
<path d="M84.3242 48.2751V42.6069H87.1497V36.9214H84.3242V39.7642H81.4814V42.6069H78.6387V45.4497H61.5994V25.5676H75.7959V31.2358H78.6387V17.0393H75.7959V22.7249H61.5994V5.68555H75.7959V8.52832H78.6387V11.3711H81.4814V14.1965H84.3242V8.52832H81.4814V2.84277H50.2456V5.68555H55.9138V45.4497H50.2456V48.2751H84.3242Z" fill="black"/>
<path d="M105.558 48.2751V45.4497H99.8728V8.52832H102.716V14.1965H105.558V19.8821H108.401V25.5676H111.227V31.2358H114.069V36.9214H116.912V42.6069H119.755V48.2751H128.266V5.68555H133.951V2.84277H119.755V5.68555H125.44V42.6069H122.598V36.9214H119.755V31.2358H116.912V25.5676H114.069V19.8821H111.227V14.1965H108.401V8.52832H105.558V2.84277H91.3618V5.68555H97.03V45.4497H91.3618V48.2751H105.558Z" fill="black"/>
<path d="M160.94 31.2358V28.4104H138.233V31.2358H160.94Z" fill="black"/>
<path d="M190.738 48.2751V45.4497H185.052V5.68555H199.249V14.1965H202.091V8.52832H204.934V0H202.091V2.84277H165.17V0H162.344V8.52832H159.519V14.1965H162.344V11.3711H165.17V8.52832H168.013V5.68555H179.384V45.4497H173.698V48.2751H190.738Z" fill="black"/>
<path d="M226.203 48.2751V45.4497H220.517V25.5676H240.399V45.4497H234.714V48.2751H251.753V45.4497H246.068V5.68555H251.753V2.84277H234.714V5.68555H240.399V22.7249H220.517V5.68555H226.203V2.84277H209.164V5.68555H214.832V45.4497H209.164V48.2751H226.203Z" fill="black"/>
<path d="M274.461 48.2751V45.4497H268.775V5.68555H274.461V2.84277H257.421V5.68555H263.09V45.4497H257.421V48.2751H274.461Z" fill="black"/>
<path d="M297.203 48.2751V45.4497H291.517V28.4104H294.36V31.2358H297.203V34.0786H300.028V36.9214H302.871V39.7642H305.714V42.6069H308.557V45.4497H311.399V48.2751H322.753V45.4497H317.068V42.6069H314.242V39.7642H311.399V36.9214H308.557V34.0786H305.714V31.2358H302.871V28.4104H308.557V25.5676H311.399V22.7249H314.242V8.52832H311.399V5.68555H308.557V2.84277H280.164V5.68555H285.832V45.4497H280.164V48.2751H297.203ZM291.517 25.5676V5.68555H305.714V8.52832H308.557V22.7249H305.714V25.5676H291.517Z" fill="black"/>
<path d="M352.568 48.2751V45.4497H346.882V5.68555H361.079V14.1965H363.921V8.52832H366.764V0H363.921V2.84277H327V0H324.175V8.52832H321.349V14.1965H324.175V11.3711H327V8.52832H329.843V5.68555H341.214V45.4497H335.528V48.2751H352.568Z" fill="black"/>
<path d="M399.404 48.2751V45.4497H393.719V28.4104H390.893V22.7249H388.05V17.0393H385.208V11.3711H382.365V5.68555H388.05V2.84277H371.028V5.68555H376.679V11.3711H379.522V17.0393H382.365V22.7249H385.208V28.4104H388.05V45.4497H382.365V48.2751H399.404ZM405.09 11.3711V5.68555H410.758V2.84277H396.561V5.68555H402.247V11.3711H405.09ZM402.247 17.0393V11.3711H399.404V17.0393H402.247ZM399.404 22.7249V17.0393H396.561V22.7249H399.404ZM396.561 28.4104V22.7249H393.719V28.4104H396.561Z" fill="black"/>
<path d="M456.208 5.68555V2.84277H442.011V5.68555H456.208ZM442.011 45.4497V42.6069H439.168V39.7642H436.325V34.0786H433.483V17.0393H436.325V11.3711H439.168V8.52832H442.011V5.68555H436.325V8.52832H433.483V11.3711H430.64V17.0393H427.814V34.0786H430.64V39.7642H433.483V42.6069H436.325V45.4497H442.011ZM461.893 45.4497V42.6069H464.719V39.7642H467.561V34.0786H470.404V17.0393H467.561V11.3711H464.719V8.52832H461.893V5.68555H456.208V8.52832H459.05V11.3711H461.893V17.0393H464.719V34.0786H461.893V39.7642H459.05V42.6069H456.208V45.4497H461.893ZM456.208 48.2751V45.4497H442.011V48.2751H456.208Z" fill="black"/>
<path d="M487.391 48.2751V45.4497H481.706V8.52832H484.549V14.1965H487.391V19.8821H490.234V25.5676H493.06V31.2358H495.902V36.9214H498.745V42.6069H501.588V48.2751H510.099V5.68555H515.784V2.84277H501.588V5.68555H507.273V42.6069H504.431V36.9214H501.588V31.2358H498.745V25.5676H495.902V19.8821H493.06V14.1965H490.234V8.52832H487.391V2.84277H473.195V5.68555H478.863V45.4497H473.195V48.2751H487.391Z" fill="black"/>
<path d="M569.745 48.2751V45.4497H564.077V36.9214H561.234V28.4104H558.391V19.8821H555.549V11.3711H552.706V0H549.88V2.84277H547.038V11.3711H549.88V19.8821H552.706V28.4104H555.549V31.2358H541.352V28.4104H538.509V36.9214H541.352V34.0786H555.549V36.9214H558.391V45.4497H552.706V48.2751H569.745ZM547.038 19.8821V11.3711H544.195V19.8821H547.038ZM544.195 28.4104V19.8821H541.352V28.4104H544.195ZM544.195 48.2751V45.4497H538.509V36.9214H535.667V45.4497H530.016V48.2751H544.195Z" fill="black"/>
<path d="M610.931 48.2751V45.4497H613.773V42.6069H616.616V29.8318H613.773V26.989H610.931V24.1462H605.245V21.3035H599.577V18.4607H593.891V15.6179H591.049V8.52832H593.891V5.68555H608.088V8.52832H610.931V11.3711H613.773V5.68555H610.931V2.84277H591.049V5.68555H588.206V8.52832H585.38V18.4607H588.206V21.3035H591.049V24.1462H596.734V26.989H602.42V29.8318H608.088V32.6572H610.931V42.6069H608.088V45.4497H593.891V42.6069H591.049V39.7642H588.206V36.9214H585.38V42.6069H588.206V48.2751H610.931Z" fill="black"/>
<path d="M650.677 48.2751V45.4497H636.481V42.6069H633.638V36.9214H630.795V5.68555H636.481V2.84277H619.459V5.68555H625.11V36.9214H627.953V42.6069H630.795V45.4497H633.638V48.2751H650.677ZM659.188 36.9214V5.68555H664.874V2.84277H650.677V5.68555H656.363V36.9214H659.188ZM656.363 42.6069V36.9214H653.52V42.6069H656.363ZM653.52 45.4497V42.6069H650.677V45.4497H653.52Z" fill="black"/>
<path d="M683.335 48.2751V45.4497H677.649V14.1965H680.492V22.7249H683.335V31.2358H686.177V39.7642H689.003V48.2751H694.688V39.7642H691.846V31.2358H689.003V22.7249H686.177V14.1965H683.335V2.84277H669.138V5.68555H674.806V45.4497H669.138V48.2751H683.335ZM717.413 48.2751V45.4497H711.728V5.68555H717.413V2.84277H703.217V14.1965H706.042V45.4497H700.374V48.2751H717.413ZM703.217 22.7249V14.1965H700.374V22.7249H703.217ZM700.374 31.2358V22.7249H697.531V31.2358H700.374ZM697.531 39.7642V31.2358H694.688V39.7642H697.531Z" fill="black"/>
<path d="M737.278 48.2751V45.4497H731.593V14.1965H734.435V22.7249H737.278V31.2358H740.121V39.7642H742.946V48.2751H748.632V39.7642H745.789V31.2358H742.946V22.7249H740.121V14.1965H737.278V2.84277H723.082V5.68555H728.75V45.4497H723.082V48.2751H737.278ZM771.357 48.2751V45.4497H765.671V5.68555H771.357V2.84277H757.16V14.1965H759.986V45.4497H754.317V48.2751H771.357ZM757.16 22.7249V14.1965H754.317V22.7249H757.16ZM754.317 31.2358V22.7249H751.475V31.2358H754.317ZM751.475 39.7642V31.2358H748.632V39.7642H751.475Z" fill="black"/>
<path d="M811.104 48.2751V42.6069H813.929V36.9214H811.104V39.7642H808.261V42.6069H805.418V45.4497H788.379V25.5676H802.575V31.2358H805.418V17.0393H802.575V22.7249H788.379V5.68555H802.575V8.52832H805.418V11.3711H808.261V14.1965H811.104V8.52832H808.261V2.84277H777.025V5.68555H782.693V45.4497H777.025V48.2751H811.104Z" fill="black"/>
<path d="M835.18 48.2751V45.4497H829.495V28.4104H832.338V31.2358H835.18V34.0786H838.006V36.9214H840.849V39.7642H843.691V42.6069H846.534V45.4497H849.377V48.2751H860.731V45.4497H855.045V42.6069H852.22V39.7642H849.377V36.9214H846.534V34.0786H843.691V31.2358H840.849V28.4104H846.534V25.5676H849.377V22.7249H852.22V8.52832H849.377V5.68555H846.534V2.84277H818.141V5.68555H823.809V45.4497H818.141V48.2751H835.18ZM829.495 25.5676V5.68555H843.691V8.52832H846.534V22.7249H843.691V25.5676H829.495Z" fill="black"/>
<path d="M890.58 48.2751V45.4497H884.894V8.52832H887.737V14.1965H890.58V19.8821H893.423V25.5676H896.248V31.2358H899.091V36.9214H901.934V42.6069H904.776V48.2751H913.287V5.68555H918.973V2.84277H904.776V5.68555H910.462V42.6069H907.619V36.9214H904.776V31.2358H901.934V25.5676H899.091V19.8821H896.248V14.1965H893.423V8.52832H890.58V2.84277H876.383V5.68555H882.052V45.4497H876.383V48.2751H890.58Z" fill="black"/>
<path d="M940.294 48.2751V45.4497H934.608V5.68555H940.294V2.84277H923.254V5.68555H928.923V45.4497H923.254V48.2751H940.294Z" fill="black"/>
<path d="M982.866 14.1965V8.52832H980.023V2.84277H957.316V5.68555H974.355V8.52832H977.198V11.3711H980.023V14.1965H982.866ZM957.316 45.4497V42.6069H954.473V39.7642H951.63V34.0786H948.787V17.0393H951.63V11.3711H954.473V8.52832H957.316V5.68555H951.63V8.52832H948.787V11.3711H945.945V17.0393H943.119V34.0786H945.945V39.7642H948.787V42.6069H951.63V45.4497H957.316ZM980.023 48.2751V45.4497H982.866V31.2358H985.709V28.4104H970.091V31.2358H977.198V42.6069H974.355V45.4497H957.316V48.2751H980.023Z" fill="black"/>
<path d="M1005.61 48.2751V45.4497H999.923V25.5676H1019.8V45.4497H1014.12V48.2751H1031.16V45.4497H1025.47V5.68555H1031.16V2.84277H1014.12V5.68555H1019.8V22.7249H999.923V5.68555H1005.61V2.84277H988.569V5.68555H994.237V45.4497H988.569V48.2751H1005.61Z" fill="black"/>
<path d="M1065.2 48.2751V45.4497H1059.52V5.68555H1073.71V14.1965H1076.56V8.52832H1079.4V0H1076.56V2.84277H1039.63V0H1036.81V8.52832H1033.98V14.1965H1036.81V11.3711H1039.63V8.52832H1042.48V5.68555H1053.85V45.4497H1048.16V48.2751H1065.2Z" fill="black"/>
</svg>
