<?xml version="1.0" encoding="UTF-8"?><svg id="_레이어_1" xmlns="http://www.w3.org/2000/svg" viewBox="0 0 642 1123.5"><defs><style>.cls-1{fill:#7c503c;}</style></defs><polygon class="cls-1" points="561.75 0 481.5 0 401.25 0 321 0 240.75 0 160.5 0 80.25 0 0 0 0 642 0 722.25 0 802.5 0 882.75 0 963 0 1043.25 0 1123.5 80.25 1123.5 80.25 1043.25 160.5 1043.25 160.5 963 240.75 963 240.75 882.75 321 882.75 401.25 882.75 401.25 963 481.5 963 481.5 1043.25 561.75 1043.25 561.75 1123.5 642 1123.5 642 1043.25 642 963 642 882.75 642 802.5 642 722.25 642 642 642 0 561.75 0"/></svg>