<svg width="626" height="49" viewBox="0 0 626 49" fill="none" xmlns="http://www.w3.org/2000/svg">
<path d="M9.39417 36.2146V30.1727H12.4151V27.1702H15.4361V24.1492H18.457V21.1283H21.4596V18.1073H24.4805V15.0863H27.5015V6.04191H24.4805V3.02095H21.4596V0H3.35226V3.02095H0.349731V9.06286H6.37322V6.04191H9.39417V3.02095H18.457V6.04191H21.4596V12.0654H18.457V15.0863H15.4361V18.1073H12.4151V21.1283H9.39417V24.1492H6.37322V36.2146H9.39417ZM10.9046 48.28V42.2565H4.86274V48.28H10.9046Z" fill="black"/>
<path d="M42.6247 36.2146V30.1727H45.6456V27.1702H48.6666V24.1492H51.6875V21.1283H54.6901V18.1073H57.711V15.0863H60.732V6.04191H57.711V3.02095H54.6901V0H36.5828V3.02095H33.5802V9.06286H39.6037V6.04191H42.6247V3.02095H51.6875V6.04191H54.6901V12.0654H51.6875V15.0863H48.6666V18.1073H45.6456V21.1283H42.6247V24.1492H39.6037V36.2146H42.6247ZM44.1351 48.28V42.2565H38.0932V48.28H44.1351Z" fill="black"/>
<path d="M75.8552 36.2146V30.1727H78.8761V27.1702H81.8971V24.1492H84.918V21.1283H87.9205V18.1073H90.9415V15.0863H93.9625V6.04191H90.9415V3.02095H87.9205V0H69.8132V3.02095H66.8107V9.06286H72.8342V6.04191H75.8552V3.02095H84.918V6.04191H87.9205V12.0654H84.918V15.0863H81.8971V18.1073H78.8761V21.1283H75.8552V24.1492H72.8342V36.2146H75.8552ZM77.3656 48.28V42.2565H71.3237V48.28H77.3656Z" fill="black"/>
<path d="M109.086 36.2146V30.1727H112.107V27.1702H115.128V24.1492H118.149V21.1283H121.151V18.1073H124.172V15.0863H127.193V6.04191H124.172V3.02095H121.151V0H103.044V3.02095H100.041V9.06286H106.065V6.04191H109.086V3.02095H118.149V6.04191H121.151V12.0654H118.149V15.0863H115.128V18.1073H112.107V21.1283H109.086V24.1492H106.065V36.2146H109.086ZM110.596 48.28V42.2565H104.554V48.28H110.596Z" fill="black"/>
<path d="M142.316 36.2146V30.1727H145.337V27.1702H148.358V24.1492H151.379V21.1283H154.382V18.1073H157.402V15.0863H160.423V6.04191H157.402V3.02095H154.382V0H136.274V3.02095H133.272V9.06286H139.295V6.04191H142.316V3.02095H151.379V6.04191H154.382V12.0654H151.379V15.0863H148.358V18.1073H145.337V21.1283H142.316V24.1492H139.295V36.2146H142.316ZM143.827 48.28V42.2565H137.785V48.28H143.827Z" fill="black"/>
<path d="M175.547 36.2146V30.1727H178.568V27.1702H181.589V24.1492H184.609V21.1283H187.612V18.1073H190.633V15.0863H193.654V6.04191H190.633V3.02095H187.612V0H169.505V3.02095H166.502V9.06286H172.526V6.04191H175.547V3.02095H184.609V6.04191H187.612V12.0654H184.609V15.0863H181.589V18.1073H178.568V21.1283H175.547V24.1492H172.526V36.2146H175.547ZM177.057 48.28V42.2565H171.015V48.28H177.057Z" fill="black"/>
<path d="M208.777 36.2146V30.1727H211.798V27.1702H214.819V24.1492H217.84V21.1283H220.843V18.1073H223.863V15.0863H226.884V6.04191H223.863V3.02095H220.843V0H202.735V3.02095H199.733V9.06286H205.756V6.04191H208.777V3.02095H217.84V6.04191H220.843V12.0654H217.84V15.0863H214.819V18.1073H211.798V21.1283H208.777V24.1492H205.756V36.2146H208.777ZM210.288 48.28V42.2565H204.246V48.28H210.288Z" fill="black"/>
<path d="M242.008 36.2146V30.1727H245.029V27.1702H248.05V24.1492H251.07V21.1283H254.073V18.1073H257.094V15.0863H260.115V6.04191H257.094V3.02095H254.073V0H235.966V3.02095H232.963V9.06286H238.987V6.04191H242.008V3.02095H251.07V6.04191H254.073V12.0654H251.07V15.0863H248.05V18.1073H245.029V21.1283H242.008V24.1492H238.987V36.2146H242.008ZM243.518 48.28V42.2565H237.476V48.28H243.518Z" fill="black"/>
<path d="M275.238 36.2146V30.1727H278.259V27.1702H281.28V24.1492H284.301V21.1283H287.303V18.1073H290.324V15.0863H293.345V6.04191H290.324V3.02095H287.303V0H269.196V3.02095H266.194V9.06286H272.217V6.04191H275.238V3.02095H284.301V6.04191H287.303V12.0654H284.301V15.0863H281.28V18.1073H278.259V21.1283H275.238V24.1492H272.217V36.2146H275.238ZM276.749 48.28V42.2565H270.707V48.28H276.749Z" fill="black"/>
<path d="M308.469 36.2146V30.1727H311.49V27.1702H314.511V24.1492H317.531V21.1283H320.534V18.1073H323.555V15.0863H326.576V6.04191H323.555V3.02095H320.534V0H302.427V3.02095H299.424V9.06286H305.448V6.04191H308.469V3.02095H317.531V6.04191H320.534V12.0654H317.531V15.0863H314.511V18.1073H311.49V21.1283H308.469V24.1492H305.448V36.2146H308.469ZM309.979 48.28V42.2565H303.937V48.28H309.979Z" fill="black"/>
<path d="M341.699 36.2146V30.1727H344.72V27.1702H347.741V24.1492H350.762V21.1283H353.764V18.1073H356.785V15.0863H359.806V6.04191H356.785V3.02095H353.764V0H335.657V3.02095H332.655V9.06286H338.678V6.04191H341.699V3.02095H350.762V6.04191H353.764V12.0654H350.762V15.0863H347.741V18.1073H344.72V21.1283H341.699V24.1492H338.678V36.2146H341.699ZM343.21 48.28V42.2565H337.168V48.28H343.21Z" fill="black"/>
<path d="M374.93 36.2146V30.1727H377.951V27.1702H380.971V24.1492H383.992V21.1283H386.995V18.1073H390.016V15.0863H393.037V6.04191H390.016V3.02095H386.995V0H368.888V3.02095H365.885V9.06286H371.909V6.04191H374.93V3.02095H383.992V6.04191H386.995V12.0654H383.992V15.0863H380.971V18.1073H377.951V21.1283H374.93V24.1492H371.909V36.2146H374.93ZM376.44 48.28V42.2565H370.398V48.28H376.44Z" fill="black"/>
<path d="M408.16 36.2146V30.1727H411.181V27.1702H414.202V24.1492H417.223V21.1283H420.225V18.1073H423.246V15.0863H426.267V6.04191H423.246V3.02095H420.225V0H402.118V3.02095H399.116V9.06286H405.139V6.04191H408.16V3.02095H417.223V6.04191H420.225V12.0654H417.223V15.0863H414.202V18.1073H411.181V21.1283H408.16V24.1492H405.139V36.2146H408.16ZM409.671 48.28V42.2565H403.629V48.28H409.671Z" fill="black"/>
<path d="M441.391 36.2146V30.1727H444.412V27.1702H447.432V24.1492H450.453V21.1283H453.456V18.1073H456.477V15.0863H459.498V6.04191H456.477V3.02095H453.456V0H435.349V3.02095H432.346V9.06286H438.37V6.04191H441.391V3.02095H450.453V6.04191H453.456V12.0654H450.453V15.0863H447.432V18.1073H444.412V21.1283H441.391V24.1492H438.37V36.2146H441.391ZM442.901 48.28V42.2565H436.859V48.28H442.901Z" fill="black"/>
<path d="M474.621 36.2146V30.1727H477.642V27.1702H480.663V24.1492H483.684V21.1283H486.686V18.1073H489.707V15.0863H492.728V6.04191H489.707V3.02095H486.686V0H468.579V3.02095H465.577V9.06286H471.6V6.04191H474.621V3.02095H483.684V6.04191H486.686V12.0654H483.684V15.0863H480.663V18.1073H477.642V21.1283H474.621V24.1492H471.6V36.2146H474.621ZM476.132 48.28V42.2565H470.09V48.28H476.132Z" fill="black"/>
<path d="M507.852 36.2146V30.1727H510.872V27.1702H513.893V24.1492H516.914V21.1283H519.917V18.1073H522.938V15.0863H525.959V6.04191H522.938V3.02095H519.917V0H501.81V3.02095H498.807V9.06286H504.831V6.04191H507.852V3.02095H516.914V6.04191H519.917V12.0654H516.914V15.0863H513.893V18.1073H510.872V21.1283H507.852V24.1492H504.831V36.2146H507.852ZM509.362 48.28V42.2565H503.32V48.28H509.362Z" fill="black"/>
<path d="M541.082 36.2146V30.1727H544.103V27.1702H547.124V24.1492H550.145V21.1283H553.147V18.1073H556.168V15.0863H559.189V6.04191H556.168V3.02095H553.147V0H535.04V3.02095H532.038V9.06286H538.061V6.04191H541.082V3.02095H550.145V6.04191H553.147V12.0654H550.145V15.0863H547.124V18.1073H544.103V21.1283H541.082V24.1492H538.061V36.2146H541.082ZM542.593 48.28V42.2565H536.551V48.28H542.593Z" fill="black"/>
<path d="M574.313 36.2146V30.1727H577.333V27.1702H580.354V24.1492H583.375V21.1283H586.378V18.1073H589.399V15.0863H592.42V6.04191H589.399V3.02095H586.378V0H568.271V3.02095H565.268V9.06286H571.292V6.04191H574.313V3.02095H583.375V6.04191H586.378V12.0654H583.375V15.0863H580.354V18.1073H577.333V21.1283H574.313V24.1492H571.292V36.2146H574.313ZM575.823 48.28V42.2565H569.781V48.28H575.823Z" fill="black"/>
<path d="M607.543 36.2146V30.1727H610.564V27.1702H613.585V24.1492H616.606V21.1283H619.608V18.1073H622.629V15.0863H625.65V6.04191H622.629V3.02095H619.608V0H601.501V3.02095H598.499V9.06286H604.522V6.04191H607.543V3.02095H616.606V6.04191H619.608V12.0654H616.606V15.0863H613.585V18.1073H610.564V21.1283H607.543V24.1492H604.522V36.2146H607.543ZM609.053 48.28V42.2565H603.012V48.28H609.053Z" fill="black"/>
</svg>
